name C:\Users\u0150099\Documents\master_thesis\3dpredictsim\Results\debug\Fal_s1_mtjc2_sc_cspx10_cg2_ATx70_Fpsl10_MTc2_MTPm_k1_d01_MTJm_nl_MG_exp5_table_d01_PF_Natali2010_ls146_FDB2_lTs125_Fpsl10_ig21_wAk2e+04_wa2e+03_wpMnD1e+03.mot
datacolumns 130
datarows 4
range 0.52191364 0.55322845
endheader
time	pelvis_tilt	pelvis_list	pelvis_rotation	pelvis_tx	pelvis_ty	pelvis_tz	hip_flexion_l	hip_adduction_l	hip_rotation_l	hip_flexion_r	hip_adduction_r	hip_rotation_r	knee_angle_l	knee_angle_r	ankle_angle_l	ankle_angle_r	subtalar_angle_l	subtalar_angle_r	mtj_angle_l	mtj_angle_r	mtp_angle_l	mtp_angle_r	lumbar_extension	lumbar_bending	lumbar_rotation	arm_flex_l	arm_add_l	arm_rot_l	arm_flex_r	arm_add_r	arm_rot_r	elbow_flex_l	elbow_flex_r	pro_sup_l	pro_sup_r	glut_med1_l/activation	glut_med2_l/activation	glut_med3_l/activation	glut_min1_l/activation	glut_min2_l/activation	glut_min3_l/activation	semimem_l/activation	semiten_l/activation	bifemlh_l/activation	bifemsh_l/activation	sar_l/activation	add_long_l/activation	add_brev_l/activation	add_mag1_l/activation	add_mag2_l/activation	add_mag3_l/activation	tfl_l/activation	pect_l/activation	grac_l/activation	glut_max1_l/activation	glut_max2_l/activation	glut_max3_l/activation	iliacus_l/activation	psoas_l/activation	quad_fem_l/activation	gem_l/activation	peri_l/activation	rect_fem_l/activation	vas_med_l/activation	vas_int_l/activation	vas_lat_l/activation	med_gas_l/activation	lat_gas_l/activation	soleus_l/activation	tib_post_l/activation	flex_dig_l/activation	flex_hal_l/activation	tib_ant_l/activation	per_brev_l/activation	per_long_l/activation	per_tert_l/activation	ext_dig_l/activation	ext_hal_l/activation	FDB_l/activation	ercspn_l/activation	intobl_l/activation	extobl_l/activation	glut_med1_r/activation	glut_med2_r/activation	glut_med3_r/activation	glut_min1_r/activation	glut_min2_r/activation	glut_min3_r/activation	semimem_r/activation	semiten_r/activation	bifemlh_r/activation	bifemsh_r/activation	sar_r/activation	add_long_r/activation	add_brev_r/activation	add_mag1_r/activation	add_mag2_r/activation	add_mag3_r/activation	tfl_r/activation	pect_r/activation	grac_r/activation	glut_max1_r/activation	glut_max2_r/activation	glut_max3_r/activation	iliacus_r/activation	psoas_r/activation	quad_fem_r/activation	gem_r/activation	peri_r/activation	rect_fem_r/activation	vas_med_r/activation	vas_int_r/activation	vas_lat_r/activation	med_gas_r/activation	lat_gas_r/activation	soleus_r/activation	tib_post_r/activation	flex_dig_r/activation	flex_hal_r/activation	tib_ant_r/activation	per_brev_r/activation	per_long_r/activation	per_tert_r/activation	ext_dig_r/activation	ext_hal_r/activation	FDB_r/activation	ercspn_r/activation	intobl_r/activation	extobl_r/activation	
          0.52191364	         -2.92789932	          1.47184064	         -3.78662374	          0.69414514	          0.90898524	          0.00388157	         27.10684729	          2.97662577	         -1.93338996	        -16.97372921	          1.48731063	         11.18786991	         -8.38909108	         -9.30362014	          3.74223205	          4.23913935	         -0.10306134	          3.34769050	          1.35019223	         -0.92868348	         -0.74625660	         19.78154537	         -3.53681327	         -0.85129713	          2.33499400	         -3.04479797	        -13.46606305	          8.55419070	          2.82786813	        -13.85913091	         19.27880672	         22.69579077	         37.36693739	         86.51662706	         86.51662706	          0.05001662	          0.05000014	          0.05000992	          0.05000007	          0.05000011	          0.05000024	          0.27330492	          0.06909556	          0.30112864	          0.06891040	          0.05000069	          0.13893326	          0.15866426	          0.12808841	          0.14600190	          0.14232687	          0.05000053	          0.05311413	          0.12947061	          0.05439565	          0.07156435	          0.11222475	          0.05000007	          0.05000006	          0.11214401	          0.05000019	          0.05000007	          0.05000003	          0.05000019	          0.05000018	          0.05000017	          0.07726035	          0.05000012	          0.05000001	          0.05000004	          0.06354754	          0.05000334	          0.26536227	          0.08059512	          0.09469637	          0.29858424	          0.56382453	          0.30827373	          0.05355143	          0.06585850	          0.06891044	          0.08089879	          0.42544110	          0.06356313	          0.05000001	          0.62781126	          0.21812570	          0.08089845	          0.05000050	          0.05000006	          0.05000004	          0.08574066	          0.09781834	          0.05000003	          0.05000004	          0.05000007	          0.05000024	          0.05000018	          0.64248767	          0.05000027	          0.05000008	          0.05000044	          0.05000022	          0.05000015	          0.42627794	          0.67985856	          0.05000001	          0.05000010	          0.05000002	          0.33271437	          0.08071477	          0.08684681	          0.06726272	          0.40794367	          0.47900800	          0.33326019	          0.40141392	          0.55592116	          0.50417184	          0.05000000	          0.06891040	          0.11150256	          0.05000003	          0.05000001	          0.09497290	          0.82106321	          0.05000000	          0.05000000	          0.05000000	
          0.53235191	         -2.93008800	          1.56795961	         -4.10321458	          0.71063748	          0.90815143	          0.00377528	         26.79611172	          3.37023607	         -1.81891293	        -17.04468320	          1.14010242	         11.01378279	         -8.76165425	        -10.80223909	          3.28334413	          3.64699982	         -0.25367253	          4.55056071	          1.72858433	         -2.04343136	         -1.60338771	         22.33383122	         -3.32860904	         -1.02577661	          2.45842183	         -3.73625867	        -13.44997584	          8.18607705	          2.34892790	        -13.82275386	         19.07379352	         21.93788982	         39.05979656	         86.51662706	         86.51662706	          0.05869851	          0.05869848	          0.05000004	          0.05869857	          0.05869855	          0.05003186	          0.23280378	          0.05885629	          0.25650430	          0.05869858	          0.05000013	          0.15366958	          0.18201008	          0.10910722	          0.12443883	          0.15001566	          0.05000010	          0.05676989	          0.11028447	          0.05000016	          0.06096138	          0.14898563	          0.07379887	          0.05493794	          0.36975523	          0.13091653	          0.05869920	          0.05000003	          0.05000007	          0.05000007	          0.05000006	          0.07125782	          0.05000178	          0.05000001	          0.05869854	          0.08084342	          0.07986291	          0.27406262	          0.12138664	          0.08066336	          0.26280184	          0.59165060	          0.30427279	          0.05869858	          0.05609891	          0.05869858	          0.06891038	          0.36239485	          0.06891039	          0.05000007	          0.53477572	          0.18580162	          0.06891034	          0.05000089	          0.05000007	          0.05000005	          0.07303473	          0.08332270	          0.05000006	          0.05000005	          0.05000006	          0.05000022	          0.05000016	          0.64947666	          0.05000030	          0.05000010	          0.05000093	          0.05000038	          0.05000020	          0.36310768	          0.59142160	          0.05000002	          0.05000018	          0.05002209	          0.28340975	          0.08329782	          0.08745388	          0.07608310	          0.35720349	          0.42232463	          0.30547783	          0.34192828	          0.47353967	          0.42945863	          0.05000000	          0.05869855	          0.09497896	          0.05000001	          0.05000000	          0.08089883	          0.69938958	          0.05000002	          0.05000042	          0.05000026	
          0.54279018	         -2.92975212	          1.69819149	         -4.40690527	          0.72744148	          0.90740809	          0.00364834	         26.50103299	          3.73248557	         -1.68077121	        -17.02588270	          0.74679383	         10.76459184	         -9.75585431	        -12.41223710	          2.49412706	          2.83916149	         -0.36578884	          5.78984734	          1.98254869	         -3.26293146	         -2.39350114	         25.06753675	         -3.09360436	         -1.23504723	          2.56920059	         -4.46559845	        -13.46157024	          8.04953859	          1.79253822	        -13.77888829	         18.82799806	         21.21283479	         40.77862106	         86.51662706	         86.51662706	          0.05000000	          0.05000002	          0.10445713	          0.05000002	          0.05000003	          0.05000003	          0.19830451	          0.05013436	          0.21849284	          0.05000003	          0.06888797	          0.13089741	          0.26209718	          0.33263698	          0.24903266	          0.19356764	          0.05000047	          0.06889758	          0.09394144	          0.09550153	          0.14043889	          0.19764348	          0.06514782	          0.06767872	          0.46421390	          0.11151601	          0.05000058	          0.05869864	          0.07419407	          0.08516535	          0.05873196	          0.06891033	          0.06891035	          0.06441378	          0.05000003	          0.06886323	          0.06802804	          0.32458550	          0.16795297	          0.06870987	          0.42888292	          0.63030094	          0.28110771	          0.05000002	          0.05000000	          0.05000002	          0.05869855	          0.30869144	          0.05869859	          0.05869856	          0.45552714	          0.15826763	          0.05869856	          0.05000098	          0.05000012	          0.05000030	          0.06221169	          0.07097513	          0.18854676	          0.05000017	          0.05869595	          0.05859389	          0.05869944	          0.57356249	          0.05000024	          0.05000103	          0.05869870	          0.05869866	          0.05869864	          0.30929863	          0.58307001	          0.05869856	          0.05869860	          0.05000835	          0.24141117	          0.11149538	          0.11149539	          0.11149535	          0.30426939	          0.35974023	          0.26020897	          0.29125781	          0.40336570	          0.36581704	          0.09801960	          0.05000000	          0.08090400	          0.05000001	          0.05000000	          0.06891041	          0.59574679	          0.06865567	          0.06640095	          0.05000002	
          0.55322845	         -2.92682303	          1.88089311	         -4.70290242	          0.74444578	          0.90679082	          0.00353071	         26.16866346	          4.02951192	         -1.44606202	        -16.86540842	          0.30275998	         10.44493299	        -10.98614699	        -14.21241895	          1.63200329	          1.81870834	         -0.47863641	          7.03500987	          2.15212146	         -4.53950369	         -3.08777750	         27.76713897	         -2.83973425	         -1.49769163	          2.67175497	         -5.20813719	        -13.50107468	          8.13003563	          1.18423106	        -13.72591613	         18.57922408	         20.50210081	         42.50079010	         86.51662706	         86.51662706	          0.32766302	          0.30023812	          0.28129309	          0.35294576	          0.19585104	          0.14445738	          0.16891769	          0.12297876	          0.18611431	          0.06891057	          0.05867956	          0.11149972	          0.22563484	          0.28334348	          0.21407723	          0.24128016	          0.05000008	          0.05870017	          0.15586113	          0.24090053	          0.23734771	          0.27202276	          0.05869849	          0.05764942	          0.39542189	          0.09499044	          0.05869896	          0.05000007	          0.06319923	          0.07254467	          0.05002846	          0.05869849	          0.05869850	          0.05486828	          0.05000024	          0.05865842	          0.05794701	          0.37957738	          0.14306398	          0.10149199	          0.36532684	          0.75061575	          0.57609604	          0.29413277	          0.06205548	          0.08361874	          0.05000001	          0.26294638	          0.05000004	          0.05000001	          0.38802251	          0.13481392	          0.05000003	          0.05000078	          0.05000008	          0.05000004	          0.05299256	          0.06045744	          0.28629463	          0.07342701	          0.05000016	          0.05000021	          0.05000084	          0.62033647	          0.18116570	          0.05000012	          0.05000033	          0.05000019	          0.05000015	          0.26346394	          0.57850254	          0.05000002	          0.05000009	          0.05000000	          0.20563637	          0.09497285	          0.09497286	          0.09497282	          0.25917960	          0.30643020	          0.22164851	          0.24809622	          0.34359081	          0.31160651	          0.19735959	          0.05000008	          0.06891481	          0.05000005	          0.05000001	          0.05869856	          0.50746287	          0.09030375	          0.05656097	          0.05000001	
